<svg width="98" height="24" viewBox="0 0 98 24" fill="none" xmlns="http://www.w3.org/2000/svg">
<path d="M4.96 0.599999H6.4V24H4.96V0.599999ZM0.76 0.599999H2.2V24H0.76V0.599999ZM9.64211 0.599999H27.6721V2.04H9.64211V0.599999ZM19.9921 3.72H27.6721V5.16H21.4321V24H19.9921V3.72ZM15.8521 5.16H9.64211V3.72H17.2921V24H15.8521V5.16ZM34.8965 0.599999H36.3365V19.11H46.2665V20.55H34.8965V0.599999ZM30.7865 0.599999H32.2265V22.56H46.2665V24H30.7865V0.599999ZM54.1202 0.599999H55.5602V24H54.1202V0.599999ZM49.9202 0.599999H51.3602V24H49.9202V0.599999ZM60.9623 0.599999H76.5923V2.04H62.4023V24H60.9623V0.599999ZM65.0423 3.72H76.5923V5.16H66.4823V10.62H75.3023V12.06H65.0423V3.72ZM65.0423 13.62H75.3023V15.06H66.4823V24H65.0423V13.62ZM80.2982 0.599999H96.4982V2.04H81.7382V22.56H97.0982V24H80.2982V0.599999ZM84.3182 3.72H96.4982V5.16H85.7582V9.78H94.9682V11.22H84.3182V3.72ZM84.3182 12.81H94.9682V14.25H85.7582V19.44H97.0982V20.88H84.3182V12.81Z" fill="#282528"/>
</svg>
